<svg width="920" height="1073" viewBox="0 0 920 1073" fill="none" xmlns="http://www.w3.org/2000/svg">
<path d="M4 674.5H560V1069H30C15.6406 1069 4 1057.36 4 1043V674.5Z" stroke="black" stroke-opacity="0.6" stroke-width="8"/>
<path d="M570.5 660L3.99985 660L3.99999 379C4 364.641 15.6406 353 30 353L890 353C904.359 353 916 364.641 916 379L916 1043C916 1057.36 904.359 1069 890 1069L574.5 1069L574.5 664L574.5 660L570.5 660Z" stroke="black" stroke-opacity="0.6" stroke-width="8"/>
<path fill-rule="evenodd" clip-rule="evenodd" d="M903.607 314.147L466.85 10.5055C462.732 7.64269 457.268 7.64269 453.15 10.5055L16.3923 314.147C6.74282 320.856 11.4899 336 23.2422 336H896.758C908.51 336 913.257 320.856 903.607 314.147ZM471.416 3.93695C464.553 -0.834453 455.447 -0.834451 448.583 3.93695L11.8257 307.579C-4.25681 318.759 3.655 344 23.2422 344H896.758C916.345 344 924.257 318.759 908.174 307.579L471.416 3.93695Z" fill="black" fill-opacity="0.6"/>
<circle cx="333.5" cy="855.5" r="141.5" stroke="black" stroke-opacity="0.6" stroke-width="8"/>
</svg>
