<svg width="513" height="513" viewBox="0 0 513 513" fill="none" xmlns="http://www.w3.org/2000/svg">
<path fill-rule="evenodd" clip-rule="evenodd" d="M240.512 505.465C244.562 509.853 249.962 512.215 257.049 512.215C263.8 512.215 269.2 509.853 273.25 505.465C276.962 501.078 278.987 494.665 278.987 486.227V450.114V409.95V373.837C278.987 365.399 276.962 358.987 273.25 354.599C269.537 350.211 264.137 347.849 257.049 347.849C249.962 347.849 244.562 350.211 240.512 354.599C236.461 358.987 234.436 365.399 234.436 373.837V409.95V450.114V486.227C234.436 494.665 236.461 501.078 240.512 505.465ZM158.159 272.584C162.547 268.534 164.91 263.134 164.91 256.046C164.91 248.959 162.884 243.559 158.159 239.846C153.772 236.133 147.359 234.108 138.921 234.108H102.808H62.6445H26.5311C18.0934 234.108 11.6807 236.133 7.29314 239.846C2.90553 243.559 0.542969 248.959 0.542969 256.046C0.542969 263.134 2.90553 268.534 7.29314 272.584C11.6807 276.634 18.0934 278.659 26.5311 278.659H62.6445H102.808H138.921C147.359 278.659 153.772 276.634 158.159 272.584ZM505.793 272.584C510.18 268.534 512.543 263.134 512.543 256.046C512.543 248.959 510.518 243.558 505.793 239.846C501.405 236.133 494.992 234.108 486.555 234.108H450.441H410.278H374.164C365.727 234.108 359.314 236.133 354.926 239.846C350.539 243.558 348.176 248.959 348.176 256.046C348.176 263.134 350.539 268.534 354.926 272.584C359.314 276.634 365.727 278.659 374.164 278.659H410.278H450.441H486.555C494.992 278.659 501.405 276.634 505.793 272.584ZM257.049 164.582C249.962 164.582 244.562 162.219 240.512 157.832C236.461 153.444 234.436 147.031 234.436 138.594V102.48V62.3167V26.2032C234.436 17.7655 236.461 11.3529 240.512 6.9653C244.562 2.57767 249.962 0.215149 257.049 0.215149C264.137 0.215149 269.537 2.57767 273.25 6.9653C276.962 11.3529 278.987 17.7655 278.987 26.2032V62.3167V102.48V138.594C278.987 147.031 276.962 153.444 273.25 157.832C269.2 162.219 263.8 164.582 257.049 164.582ZM191.911 191.245C186.848 196.308 181.448 198.333 175.71 198.333C169.635 197.995 163.897 194.957 157.822 188.882L132.172 163.232L103.821 134.881L78.5078 109.568C72.4327 103.493 69.3951 97.7551 69.0576 91.6799C68.7201 85.6048 71.0826 80.2047 76.1453 75.4796C81.2079 70.417 86.2705 68.3919 92.3456 68.7294C98.0833 69.0669 104.158 72.442 110.234 78.1796L135.547 103.83L163.897 132.181L189.548 157.494C195.623 163.569 198.661 169.307 198.998 175.382C198.998 180.782 196.973 186.182 191.911 191.245ZM421.754 444.038C427.491 444.038 432.892 442.013 437.954 436.951C442.679 432.226 445.042 426.826 445.042 421.763C444.704 415.688 441.667 409.95 435.592 403.875L409.941 378.224L381.59 349.874L355.94 324.223C349.865 318.485 343.789 315.11 338.052 314.773C331.977 314.435 326.914 316.46 321.851 321.523C316.789 326.248 314.426 331.648 314.764 337.723C315.101 343.798 318.139 349.536 324.214 355.611L349.865 380.924L378.215 409.275L403.866 434.588C409.941 440.663 415.679 443.701 421.754 444.038ZM321.851 191.582C316.788 186.52 314.763 181.119 314.763 175.382C315.101 169.307 318.138 163.569 324.214 157.494L349.527 131.843L377.877 103.493L403.19 77.8419C409.266 71.7668 415.003 68.7292 421.078 68.3917C427.154 68.0542 432.554 70.4168 437.279 75.4794C442.341 80.542 444.367 85.6046 444.029 91.6797C443.691 97.4174 440.316 103.493 434.579 109.568L408.928 134.881L380.577 163.232L354.927 188.545C348.852 194.62 343.114 197.657 337.039 197.995C331.976 198.67 326.576 196.307 321.851 191.582ZM68.7195 421.088C68.7195 426.826 70.7446 432.226 75.8072 437.289C80.8699 442.351 86.27 444.376 92.0076 444.039C98.0828 443.701 103.82 440.664 109.896 434.589L134.871 409.275L163.222 380.925L188.873 355.274C194.61 349.199 197.985 343.124 198.323 337.386C198.66 331.311 196.635 326.248 191.573 321.186C186.847 316.123 181.447 313.761 175.372 314.098C169.297 314.436 163.559 317.473 157.484 323.548L132.171 349.199L103.82 377.55L78.1698 403.2C72.0946 409.275 69.0571 415.013 68.7195 421.088Z" fill="white"/>
</svg>
